# File created by Blade
# Date/Time:  Tue Jan 27 17:21:46 2015
#---------------------------------------------------------
:version 1.10
:name HOM
:units
  mass 1.0
  length 1.000000
  angle deg
:documentation
     Acclaim Skeleton File
:root
   axis xyz
   order TX TY TZ RX RY RZ
   position 0.000000 0.000000 0.000000
   orientation 0 0 0
:bonedata
   begin
      id 1
      name Spine_dum
      direction 0.000000 1.000000 0.000000
      length 7.539951
      axis 0.0 0.0 0.0 xyz
   end
   begin
      id 2
      name LeftUpLeg_dum
      direction 1.000000 0.000000 0.000000
      length 3.345476
      axis 0.0 0.0 0.0 xyz
   end
   begin
      id 3
      name RightUpLeg_dum
      direction -1.000000 0.000000 0.000000
      length 3.345476
      axis 0.0 0.0 0.0 xyz
   end
   begin
      id 4
      name Spine
      direction 0.000000 1.000000 0.000000
      length 0.000000
      axis 0.0 0.0 0.0 xyz
      dof rx ry rz
   end
   begin
      id 5
      name Spine_dum1
      direction 0.000000 1.000000 0.000000
      length 15.093809
      axis 0.0 0.0 0.0 xyz
   end
   begin
      id 6
      name Spine_dum2
      direction 0.000000 1.000000 0.000000
      length 9.738928
      axis 0.0 0.0 0.0 xyz
   end
   begin
      id 7
      name Spine_dum3
      direction 0.000000 1.000000 0.000000
      length 9.738928
      axis 0.0 0.0 0.0 xyz
   end
   begin
      id 8
      name Head
      direction 0.000000 1.000000 0.000000
      length 4.527550
      axis 0.0 0.0 0.0 xyz
      dof rx ry rz
   end
   begin
      id 9
      name LeftShoulder
      direction 1.000000 0.000000 0.000000
      length 7.084015
      axis 0.0 0.0 -90.0 xyz
      dof rx ry rz
   end
   begin
      id 10
      name LeftArm
      direction 1.000000 0.000000 0.000000
      length 10.259319
      axis 0.0 0.0 -90.0 xyz
      dof rx ry rz
   end
   begin
      id 11
      name LeftForeArm
      direction 1.000000 0.000000 0.000000
      length 9.896984
      axis 0.0 0.0 -90.0 xyz
      dof ry rz rx
   end
   begin
      id 12
      name LeftHand
      direction 0.000000 0.000000 0.000000
      length 0.000000
      axis 0.0 0.0 -90.0 xyz
      dof rx ry rz
   end
   begin
      id 13
      name LeftHand_dum1
      direction 0.000000 0.000000 0.000000
      length 0.000000
      axis 0.0 0.0 -90.0 xyz
   end
   begin
      id 14
      name LeftHand_dum2
      direction 1.000000 0.000000 0.000000
      length 3.937000
      axis 0.0 0.0 -90.0 xyz
   end
   begin
      id 15
      name LeftHandThumb1
      direction 0.000000 0.000000 1.000000
      length 3.937000
      axis 0.0 0.0 -90.0 xyz
      dof rx rz ry
   end
   begin
      id 16
      name RightShoulder
      direction -1.000000 0.000000 0.000000
      length 7.084015
      axis 0.0 0.0 90.0 xyz
      dof rx ry rz
   end
   begin
      id 17
      name RightArm
      direction -1.000000 0.000000 0.000000
      length 10.259319
      axis 0.0 0.0 90.0 xyz
      dof rx ry rz
   end
   begin
      id 18
      name RightForeArm
      direction -1.000000 0.000000 0.000000
      length 9.896984
      axis 0.0 0.0 90.0 xyz
      dof ry rz rx
   end
   begin
      id 19
      name RightHand
      direction 0.000000 0.000000 0.000000
      length 0.000000
      axis 0.0 0.0 90.0 xyz
      dof rx ry rz
   end
   begin
      id 20
      name RightHand_dum1
      direction 0.000000 0.000000 0.000000
      length 0.000000
      axis 0.0 0.0 90.0 xyz
   end
   begin
      id 21
      name RightHand_dum2
      direction -1.000000 0.000000 0.000000
      length 3.937000
      axis 0.0 0.0 90.0 xyz
   end
   begin
      id 22
      name RightHandThumb1
      direction 0.000000 0.000000 1.000000
      length 3.937000
      axis 0.0 0.0 90.0 xyz
      dof rx rz ry
   end
   begin
      id 23
      name LeftUpLeg
      direction 0.000000 -1.000000 0.000000
      length 19.114733
      axis 0.0 0.0 0.0 xyz
      dof rx ry rz
   end
   begin
      id 24
      name LeftLeg
      direction 0.000000 -1.000000 0.000000
      length 16.045604
      axis 0.0 0.0 0.0 xyz
      dof rx ry rz
   end
   begin
      id 25
      name LeftFoot
      direction 0.000000 -0.258819 0.965926
      length 5.543155
      axis 15.0 0.0 0.0 xyz
      dof rx ry rz
   end
   begin
      id 26
      name LeftToeBase
      direction 0.000000 0.000000 1.000000
      length 2.952750
      axis 0.0 0.0 0.0 xyz
      dof rx ry rz
   end
   begin
      id 27
      name RightUpLeg
      direction 0.000000 -1.000000 0.000000
      length 19.114733
      axis 0.0 0.0 0.0 xyz
      dof rx ry rz
   end
   begin
      id 28
      name RightLeg
      direction 0.000000 -1.000000 0.000000
      length 16.045604
      axis 0.0 0.0 0.0 xyz
      dof rx ry rz
   end
   begin
      id 29
      name RightFoot
      direction 0.000000 -0.258819 0.965926
      length 5.543155
      axis 15.0 0.0 0.0 xyz
      dof rx ry rz
   end
   begin
      id 30
      name RightToeBase
      direction 0.000000 0.000000 1.000000
      length 2.952750
      axis 0.0 0.0 0.0 xyz
      dof rx ry rz
   end
:hierarchy
   begin
      root Spine_dum LeftUpLeg_dum RightUpLeg_dum
      Spine_dum Spine
      LeftUpLeg_dum LeftUpLeg
      RightUpLeg_dum RightUpLeg
      Spine Spine_dum1 Spine_dum2 Spine_dum3
      Spine_dum1 Head
      Spine_dum2 LeftShoulder
      Spine_dum3 RightShoulder
      LeftShoulder LeftArm
      LeftArm LeftForeArm
      LeftForeArm LeftHand
      LeftHand LeftHand_dum1 LeftHand_dum2
      LeftHand_dum1 LeftHandThumb1
      RightShoulder RightArm
      RightArm RightForeArm
      RightForeArm RightHand
      RightHand RightHand_dum1 RightHand_dum2
      RightHand_dum1 RightHandThumb1
      LeftUpLeg LeftLeg
      LeftLeg LeftFoot
      LeftFoot LeftToeBase
      RightUpLeg RightLeg
      RightLeg RightFoot
      RightFoot RightToeBase
   end

# File created by Blade
# Date/Time:  Tue Jan 27 17:21:37 2015
# Frame Rate: 120.000 fps
#------------------------------------------------------
:FULLY-SPECIFIED
:DEGREES
2446
root -3.130394 36.068657 1.676819 7.072118 52.377711 4.106450
Spine 3.434789 -0.127341 -0.008371
Head 7.265804 3.623363 0.430240
LeftShoulder 4.072909 -18.254285 9.592902
LeftArm 23.857075 -8.526431 -54.736020
LeftForeArm 4.844244 -0.000000 62.552740
LeftHand -15.327859 -0.000000 43.910004
LeftHandThumb1 -26.253704 0.000000 33.147579
RightShoulder -3.980787 -17.885864 2.009451
RightArm 17.060205 -21.765692 50.999068
RightForeArm 181.481736 -0.000000 35.936156
RightHand 0.068834 -0.000000 1.137589
RightHandThumb1 -24.326973 -0.000000 -32.862282
LeftUpLeg -61.579434 43.972912 -6.347139
LeftLeg 91.506324 -0.000000 -0.000000
LeftFoot -8.526121 7.816504 -31.708375
LeftToeBase 14.984192 -0.000000 -0.000000
RightUpLeg -14.668835 -21.709239 10.812503
RightLeg 23.794863 -0.000000 -0.000000
RightFoot -22.413036 -18.490132 0.381778
RightToeBase 2.368616 -0.000000 -0.000000
2447
root -3.139357 36.068830 1.658088 7.123854 52.198502 4.145655
Spine 3.467724 -0.034091 -0.049111
Head 7.211279 3.662749 0.407742
LeftShoulder 4.077246 -18.209902 9.557054
LeftArm 23.817500 -8.654799 -54.679368
LeftForeArm 4.890144 -0.000000 62.683613
LeftHand -15.336266 -0.000000 43.844346
LeftHandThumb1 -26.253704 0.000000 33.147579
RightShoulder -3.931332 -17.859442 1.992985
RightArm 17.224865 -21.777468 50.871900
RightForeArm 181.425217 0.000000 35.861631
RightHand 0.088483 -0.000000 1.138075
RightHandThumb1 -24.326973 -0.000000 -32.862282
LeftUpLeg -61.580676 43.938411 -6.403317
LeftLeg 91.406574 -0.000000 -0.000000
LeftFoot -8.546593 7.818595 -31.748837
LeftToeBase 14.918368 -0.000000 -0.000000
RightUpLeg -14.736989 -21.691611 10.778080
RightLeg 23.840470 -0.000000 -0.000000
RightFoot -22.396129 -18.407423 0.341638
RightToeBase 2.569322 -0.000000 -0.000000
2448
root -3.150331 36.069336 1.639025 7.147870 51.982179 4.127708
Spine 3.478596 0.102187 -0.040627
Head 7.199849 3.692691 0.339299
LeftShoulder 4.077964 -18.164589 9.488276
LeftArm 23.807689 -8.780201 -54.621551
LeftForeArm 4.888824 0.000000 62.815577
LeftHand -15.473274 -0.000000 43.780924
LeftHandThumb1 -26.253704 0.000000 33.147579
RightShoulder -3.877152 -17.847396 1.958556
RightArm 17.392556 -21.764016 50.742938
RightForeArm 181.235971 -0.000000 35.773163
RightHand 0.105455 -0.000000 1.081374
RightHandThumb1 -24.326973 -0.000000 -32.862282
LeftUpLeg -61.606953 43.940420 -6.435215
LeftLeg 91.300360 -0.000000 -0.000000
LeftFoot -8.556849 7.799471 -31.812282
LeftToeBase 14.817548 -0.000000 -0.000000
RightUpLeg -14.819532 -21.620606 10.780546
RightLeg 23.884171 -0.000000 -0.000000
RightFoot -22.363194 -18.283598 0.301963
RightToeBase 2.575582 -0.000000 -0.000000
2449
root -3.157890 36.068907 1.620743 7.155368 51.807287 4.120222
Spine 3.514316 0.165131 -0.023678
Head 7.154630 3.759469 0.265164
LeftShoulder 4.041706 -18.114893 9.423045
LeftArm 23.802680 -8.898854 -54.560990
LeftForeArm 4.902695 -0.000000 62.908047
LeftHand -15.463675 -0.000000 43.721016
LeftHandThumb1 -26.253704 0.000000 33.147579
RightShoulder -3.792841 -17.803058 1.901191
RightArm 17.546195 -21.838752 50.598462
RightForeArm 181.216942 -0.000000 35.674473
RightHand -0.109385 -0.000000 0.804017
RightHandThumb1 -24.326973 -0.000000 -32.862282
LeftUpLeg -61.608221 43.906634 -6.443302
LeftLeg 91.206867 -0.000000 -0.000000
LeftFoot -8.578140 7.799918 -31.854514
LeftToeBase 14.762814 -0.000000 -0.000000
RightUpLeg -14.867194 -21.630264 10.771055
RightLeg 23.909385 -0.000000 -0.000000
RightFoot -22.332321 -18.130213 0.230771
RightToeBase 2.530363 -0.000000 -0.000000
2450
root -3.164709 36.067807 1.603398 7.153073 51.604845 4.125443
Spine 3.576630 0.283847 -0.022332
Head 7.100318 3.795173 0.194468
LeftShoulder 4.035366 -18.057324 9.354532
LeftArm 23.823033 -9.024126 -54.494263
LeftForeArm 4.917133 -0.000000 62.952322
LeftHand -15.342741 -0.000000 43.679084
LeftHandThumb1 -26.253704 0.000000 33.147579
RightShoulder -3.731899 -17.768373 1.856930
RightArm 17.694547 -21.862640 50.471121
RightForeArm 181.185319 0.000000 35.576636
RightHand 0.088130 -0.000000 1.102530
RightHandThumb1 -24.326973 -0.000000 -32.862282
LeftUpLeg -61.587432 43.938254 -6.458314
LeftLeg 91.102212 -0.000000 -0.000000
LeftFoot -8.606359 7.821880 -31.769964
LeftToeBase 14.876628 -0.000000 -0.000000
RightUpLeg -14.893692 -21.581987 10.737909
RightLeg 23.951204 -0.000000 -0.000000
RightFoot -22.319888 -18.001259 0.162680
RightToeBase 2.499262 -0.000000 -0.000000
